<svg width="37" height="36" fill="none" xmlns="http://www.w3.org/2000/svg"><path d="M13.01 25.66c1.293-.935 2.084-2.372 2.084-4.098a5 5 0 00-5.031-5.03 5 5 0 00-5.032 5.03c0 1.654.863 3.163 2.085 4.097A9.304 9.304 0 00.719 34.5c0 .431.287.719.719.719h17.25c.43 0 .718-.288.718-.719a9.304 9.304 0 00-6.397-8.84zm-6.541-4.098a3.559 3.559 0 013.593-3.593 3.559 3.559 0 013.594 3.593 3.559 3.559 0 01-3.594 3.594 3.559 3.559 0 01-3.593-3.593zm-4.313 12.22c.36-4.026 3.738-7.188 7.906-7.188 4.17 0 7.476 3.162 7.907 7.187H2.156zM32.344.719H17.969a4.325 4.325 0 00-4.313 4.312c0 .432.288.719.719.719h2.875v19.406c0 1.222.934 2.157 2.156 2.157H34.5c1.222 0 2.156-.935 2.156-2.157V5.031A4.325 4.325 0 0032.344.72zM15.166 4.313c.287-1.222 1.437-2.157 2.803-2.157h11.14c-.503.575-.934 1.366-1.006 2.156H15.166zm20.053 20.843c0 .431-.288.719-.719.719H19.406c-.431 0-.718-.288-.718-.719V5.75H28.75c.431 0 .719-.287.719-.719a2.883 2.883 0 012.875-2.875 2.883 2.883 0 012.875 2.875v20.125z" fill="#153257"/><path d="M32.344 9.344H28.75c-.431 0-.719.287-.719.719v3.593c0 .431.288.719.719.719h3.594c.431 0 .718-.287.718-.719v-3.594c0-.43-.287-.718-.718-.718zm-.719 3.594h-2.156V10.78h2.156v2.156zm-6.469-3.594h-3.593c-.432 0-.72.287-.72.719 0 .43.288.718.72.718h3.593c.431 0 .719-.287.719-.719 0-.43-.288-.718-.719-.718zm0 3.594h-3.593c-.432 0-.72.287-.72.718s.288.719.72.719h3.593c.431 0 .719-.287.719-.719 0-.431-.288-.719-.719-.719zm7.188 4.312H28.75c-.431 0-.719.288-.719.719v3.593c0 .432.288.72.719.72h3.594c.431 0 .718-.288.718-.72V17.97c0-.431-.287-.719-.718-.719zm-.719 3.594h-2.156v-2.157h2.156v2.157zm-6.469-3.594h-3.593c-.432 0-.72.288-.72.719s.288.718.72.718h3.593c.431 0 .719-.287.719-.718s-.288-.719-.719-.719zm0 3.594h-3.593c-.432 0-.72.287-.72.718 0 .432.288.72.72.72h3.593c.431 0 .719-.288.719-.72 0-.43-.288-.718-.719-.718z" fill="#153257"/></svg>