<svg width="37" height="37" fill="none" xmlns="http://www.w3.org/2000/svg"><path d="M30.26 27.097c1.293-.934 2.084-2.372 2.084-4.097a5 5 0 00-5.032-5.031A5 5 0 0022.282 23c0 1.653.862 3.163 2.084 4.097-2.588.862-4.672 2.803-5.678 5.247a8.953 8.953 0 00-5.679-5.247c1.294-.934 2.085-2.372 2.085-4.097a5 5 0 00-5.031-5.031A5 5 0 005.03 23c0 1.653.863 3.163 2.085 4.097a9.304 9.304 0 00-6.397 8.84c0 .432.287.72.719.72h34.5c.43 0 .718-.288.718-.72a9.304 9.304 0 00-6.397-8.84zM6.468 23a3.559 3.559 0 013.593-3.594A3.559 3.559 0 0113.656 23a3.559 3.559 0 01-3.594 3.594A3.559 3.559 0 016.47 23zM2.156 35.219c.36-4.025 3.738-7.188 7.906-7.188 4.17 0 7.476 3.163 7.907 7.188H2.156zM23.72 23a3.559 3.559 0 013.593-3.594A3.559 3.559 0 0130.907 23a3.559 3.559 0 01-3.593 3.594A3.559 3.559 0 0123.718 23zm-4.313 12.219c.36-4.025 3.738-7.188 7.907-7.188 4.168 0 7.475 3.163 7.906 7.188H19.406zM34.5.719H2.875C1.653.719.719 1.653.719 2.875v7.906c0 1.222.934 2.156 2.156 2.156h3.953l2.66 3.307c.287.36.862.36 1.15 0l2.659-3.306h10.781l2.66 3.306c.143.143.359.287.575.287.215 0 .43-.072.575-.287l2.659-3.306H34.5c1.222 0 2.156-.935 2.156-2.157V2.875c0-1.222-.934-2.156-2.156-2.156zm.719 10.062c0 .431-.288.719-.719.719h-4.313c-.215 0-.43.072-.575.287l-2.3 2.875-2.3-2.875c-.143-.215-.359-.287-.575-.287h-11.5c-.215 0-.43.072-.574.287l-2.3 2.875-2.3-2.875c-.144-.215-.36-.287-.575-.287H2.875c-.431 0-.719-.287-.719-.719V2.875c0-.431.288-.719.719-.719H34.5c.431 0 .719.288.719.719v7.906z" fill="#153257"/><path d="M32.344 4.313H5.03c-.431 0-.718.287-.718.718 0 .432.287.719.718.719h27.313c.431 0 .718-.287.718-.719 0-.431-.287-.718-.718-.718zm0 3.593H5.03c-.431 0-.718.288-.718.719s.287.719.718.719h27.313c.431 0 .718-.288.718-.719s-.287-.719-.718-.719z" fill="#153257"/></svg>