<svg width="87" height="16" xmlns="http://www.w3.org/2000/svg" fill="#fff"><path d="M6.48 6.953L9.098.781h3.7l-4.58 9.112V15H4.743V9.893L.172.78h3.682L6.48 6.953zm6.143 2.666c0-1.055.205-1.992.615-2.812.41-.827 1-1.462 1.768-1.905.768-.442 1.67-.664 2.705-.664 1.582 0 2.829.492 3.74 1.475.912.976 1.367 2.308 1.367 3.994v.117c0 1.647-.459 2.956-1.377 3.926-.911.963-2.148 1.445-3.71 1.445-1.504 0-2.712-.449-3.624-1.347-.911-.905-1.403-2.13-1.474-3.672l-.01-.557zm3.291.205c0 .977.153 1.693.459 2.149.306.455.758.683 1.357.683 1.172 0 1.771-.901 1.797-2.705V9.62c0-1.894-.605-2.842-1.816-2.842-1.1 0-1.696.817-1.787 2.452l-.01.595zm14.649 4.033c-.697.892-1.638 1.338-2.823 1.338-1.159 0-2.037-.335-2.636-1.005-.593-.678-.89-1.648-.89-2.91V4.433h3.292v6.865c0 .905.44 1.357 1.318 1.357.755 0 1.292-.27 1.611-.81V4.434h3.311V15H30.66l-.098-1.143zm11.386-6.445l-1.084-.078c-1.035 0-1.699.326-1.992.977V15h-3.291V4.434h3.086l.107 1.357c.554-1.035 1.325-1.553 2.315-1.553.351 0 .657.04.918.117l-.059 3.057zm5.84-6.63l3.174 9.892L54.127.78h4.512V15H55.2v-3.32l.332-6.797L52.096 15H49.83L46.383 4.873l.332 6.807V15h-3.428V.781h4.502zM64.147 15h-3.301V4.434h3.3V15zM60.65 1.709c0-.469.17-.853.508-1.152.339-.3.778-.45 1.319-.45.54 0 .98.15 1.318.45.338.3.508.683.508 1.152 0 .469-.17.853-.508 1.152-.339.3-.778.45-1.318.45s-.98-.15-1.319-.45a1.47 1.47 0 01-.508-1.152zm8.555 2.725l.108 1.24c.729-.957 1.734-1.436 3.017-1.436 1.1 0 1.92.33 2.461.987.547.657.83 1.647.85 2.968V15H72.34V8.33c0-.534-.108-.924-.322-1.172-.215-.254-.606-.38-1.172-.38-.645 0-1.123.253-1.436.761V15h-3.29V4.434h3.085zm7.852 5.205c0-1.674.361-2.992 1.084-3.955.722-.964 1.731-1.446 3.027-1.446.944 0 1.738.371 2.383 1.114V0h3.3v15h-2.958l-.166-1.133c-.678.886-1.537 1.328-2.579 1.328-1.256 0-2.252-.482-2.988-1.445-.736-.963-1.103-2.334-1.103-4.111zm3.29.205c0 1.875.547 2.812 1.641 2.812.73 0 1.25-.306 1.563-.918V7.715c-.3-.625-.814-.938-1.543-.938-1.016 0-1.566.82-1.65 2.461l-.01.606z"/></svg>