<svg width="33" height="36" fill="none" xmlns="http://www.w3.org/2000/svg"><path d="M20.635 19.802a8.624 8.624 0 00-4.104-16.208c-.81 0-1.616.116-2.393.345A4.313 4.313 0 108.51 9.063a8.625 8.625 0 003.917 10.739A15.094 15.094 0 00.72 34.5a.719.719 0 00.719.719h30.187a.719.719 0 00.719-.719 15.094 15.094 0 00-11.709-14.698zm-4.104-14.77a7.188 7.188 0 016.584 4.312h-7.302a4.456 4.456 0 01-3.185-1.323l-1.02-1.02a7.123 7.123 0 014.923-1.97zm-9.43 0a2.875 2.875 0 015.678-.569 8.697 8.697 0 00-3.593 3.3A2.875 2.875 0 017.1 5.03zm2.243 7.187a7.15 7.15 0 011.315-4.133l.956.956a5.923 5.923 0 004.197 1.74h7.763A7.187 7.187 0 119.344 12.22zM2.156 33.78a13.656 13.656 0 0113.656-12.937h1.438A13.656 13.656 0 0130.906 33.78H2.156z" fill="#151A6A"/></svg>