<?xml version="1.0" encoding="utf-8"?><svg viewBox="0 0 24 24" xmlns="http://www.w3.org/2000/svg" xmlns:xlink="http://www.w3.org/1999/xlink"><style>:root>svg{display:none}:root>svg:target{display:block}</style><svg viewBox="0 0 8 12" id="arrow-left" xmlns="http://www.w3.org/2000/svg"><path d="M7.41 1.41L2.83 6l4.58 4.59L6 12 0 6l6-6 1.41 1.41z"/></svg><svg viewBox="0 0 8 12" id="arrow-right" xmlns="http://www.w3.org/2000/svg"><path d="M.59 10.59L5.17 6 .59 1.41 2 0l6 6-6 6-1.41-1.41z"/></svg><svg viewBox="0 0 24 24" id="arrow-right-btn" xmlns="http://www.w3.org/2000/svg"><path d="M16.01 11H4v2h12.01v3L20 12l-3.99-4v3z"/></svg><svg viewBox="0 0 14 14" id="arrow-top" xmlns="http://www.w3.org/2000/svg"><path d="M.287 7.693a.98.98 0 010-1.386l6.02-6.02a.978.978 0 011.386 0l6.02 6.02a.98.98 0 11-1.387 1.386L7 2.367 1.674 7.693a.98.98 0 01-1.387 0zm7.406-1.54a.978.978 0 00-1.386 0l-6.02 6.02a.98.98 0 001.387 1.386L7 8.232l5.326 5.327a.98.98 0 001.387-1.387l-6.02-6.02z"/></svg><svg viewBox="0 0 15 15" id="facebook" xmlns="http://www.w3.org/2000/svg"><path d="M8.438 5.156V3.281c0-.517.42-.937.937-.937h.938V0H8.437a2.812 2.812 0 00-2.812 2.813v2.343H3.75V7.5h1.875V15h2.813V7.5h1.874l.938-2.344H8.437z"/></svg><svg viewBox="0 0 15 15" id="linkedin" xmlns="http://www.w3.org/2000/svg"><path d="M3.354 4.688H0V15h3.354V4.687zM12.491 4.808c-.035-.01-.07-.023-.107-.033a2.162 2.162 0 00-.136-.027 3.005 3.005 0 00-.601-.06c-1.956 0-3.196 1.422-3.605 1.971V4.688H4.688V15h3.354V9.375s2.535-3.53 3.605-.938V15H15V8.04a3.345 3.345 0 00-2.509-3.232zM1.64 3.281A1.64 1.64 0 101.64 0a1.64 1.64 0 000 3.281z"/></svg><svg viewBox="0 0 11 14" id="play-icon" xmlns="http://www.w3.org/2000/svg"><path d="M0 0v14l11-7L0 0z"/></svg><svg viewBox="0 0 15 15" id="twitter" xmlns="http://www.w3.org/2000/svg"><g clip-path="url(#hclip0)"><path d="M15 2.85a6.411 6.411 0 01-1.772.485 3.058 3.058 0 001.353-1.7 6.145 6.145 0 01-1.95.744 3.074 3.074 0 00-5.32 2.103c0 .244.021.478.072.701a8.704 8.704 0 01-6.339-3.216 3.08 3.08 0 00.945 4.11A3.037 3.037 0 01.6 5.698v.034a3.09 3.09 0 002.464 3.021 3.07 3.07 0 01-.807.102c-.196 0-.395-.012-.582-.053a3.104 3.104 0 002.874 2.142 6.18 6.18 0 01-3.813 1.312c-.252 0-.494-.011-.736-.042a8.657 8.657 0 004.718 1.38c5.658 0 8.752-4.688 8.752-8.75 0-.137-.005-.268-.011-.398A6.133 6.133 0 0015 2.849z"/></g><defs><clipPath id="hclip0"><path d="M0 0h15v15H0z"/></clipPath></defs></svg><svg viewBox="0 0 15 11" id="youtube" xmlns="http://www.w3.org/2000/svg"><path d="M14.363 1.337c-.407-.723-.849-.856-1.748-.907C11.717.37 9.458.344 7.502.344c-1.96 0-4.22.025-5.117.085-.897.052-1.34.184-1.75.908C.215 2.06 0 3.305 0 5.498v.008c0 2.182.216 3.437.635 4.152.41.724.852.855 1.75.916.897.052 3.157.083 5.117.083 1.956 0 4.215-.03 5.114-.082.899-.061 1.34-.192 1.747-.916.423-.715.637-1.97.637-4.152V5.5v-.003c0-2.193-.214-3.438-.637-4.16zM5.625 8.313V2.689L10.313 5.5 5.625 8.313z"/></svg></svg>