<svg width="37" height="37" viewBox="0 0 37 37" fill="none" xmlns="http://www.w3.org/2000/svg">
<path d="M30.2594 27.0969C31.5531 26.1625 32.3438 24.725 32.3438 23C32.3438 20.1969 30.1156 17.9688 27.3125 17.9688C24.5094 17.9688 22.2812 20.1969 22.2812 23C22.2812 24.6531 23.1438 26.1625 24.3656 27.0969C21.7781 27.9594 19.6938 29.9 18.6875 32.3438C17.6812 29.8281 15.5969 27.8875 13.0094 27.0969C14.3031 26.1625 15.0938 24.725 15.0938 23C15.0938 20.1969 12.8656 17.9688 10.0625 17.9688C7.25938 17.9688 5.03125 20.1969 5.03125 23C5.03125 24.6531 5.89375 26.1625 7.11562 27.0969C3.37812 28.3188 0.71875 31.8406 0.71875 35.9375C0.71875 36.3687 1.00625 36.6562 1.4375 36.6562H35.9375C36.3688 36.6562 36.6562 36.3687 36.6562 35.9375C36.6562 31.8406 33.9969 28.3188 30.2594 27.0969ZM6.46875 23C6.46875 20.9875 8.05 19.4062 10.0625 19.4062C12.075 19.4062 13.6562 20.9875 13.6562 23C13.6562 25.0125 12.075 26.5938 10.0625 26.5938C8.05 26.5938 6.46875 25.0125 6.46875 23ZM2.15625 35.2188C2.51562 31.1938 5.89375 28.0312 10.0625 28.0312C14.2312 28.0312 17.5375 31.1938 17.9688 35.2188H2.15625ZM23.7188 23C23.7188 20.9875 25.3 19.4062 27.3125 19.4062C29.325 19.4062 30.9062 20.9875 30.9062 23C30.9062 25.0125 29.325 26.5938 27.3125 26.5938C25.3 26.5938 23.7188 25.0125 23.7188 23ZM19.4062 35.2188C19.7656 31.1938 23.1437 28.0312 27.3125 28.0312C31.4813 28.0312 34.7875 31.1938 35.2188 35.2188H19.4062Z" fill="#153257"/>
<path d="M34.5 0.71875H2.875C1.65312 0.71875 0.71875 1.65312 0.71875 2.875V10.7812C0.71875 12.0031 1.65312 12.9375 2.875 12.9375H6.82812L9.4875 16.2438C9.775 16.6031 10.35 16.6031 10.6375 16.2438L13.2969 12.9375H24.0781L26.7375 16.2438C26.8813 16.3875 27.0969 16.5312 27.3125 16.5312C27.5281 16.5312 27.7437 16.4594 27.8875 16.2438L30.5469 12.9375H34.5C35.7219 12.9375 36.6562 12.0031 36.6562 10.7812V2.875C36.6562 1.65312 35.7219 0.71875 34.5 0.71875ZM35.2188 10.7812C35.2188 11.2125 34.9313 11.5 34.5 11.5H30.1875C29.9719 11.5 29.7563 11.5719 29.6125 11.7875L27.3125 14.6625L25.0125 11.7875C24.8687 11.5719 24.6531 11.5 24.4375 11.5H12.9375C12.7219 11.5 12.5063 11.5719 12.3625 11.7875L10.0625 14.6625L7.7625 11.7875C7.61875 11.5719 7.40312 11.5 7.1875 11.5H2.875C2.44375 11.5 2.15625 11.2125 2.15625 10.7812V2.875C2.15625 2.44375 2.44375 2.15625 2.875 2.15625H34.5C34.9313 2.15625 35.2188 2.44375 35.2188 2.875V10.7812Z" fill="#153257"/>
<path d="M32.3438 4.3125H5.03125C4.6 4.3125 4.3125 4.6 4.3125 5.03125C4.3125 5.4625 4.6 5.75 5.03125 5.75H32.3438C32.775 5.75 33.0625 5.4625 33.0625 5.03125C33.0625 4.6 32.775 4.3125 32.3438 4.3125Z" fill="#153257"/>
<path d="M32.3438 7.90625H5.03125C4.6 7.90625 4.3125 8.19375 4.3125 8.625C4.3125 9.05625 4.6 9.34375 5.03125 9.34375H32.3438C32.775 9.34375 33.0625 9.05625 33.0625 8.625C33.0625 8.19375 32.775 7.90625 32.3438 7.90625Z" fill="#153257"/>
</svg>
