<svg width="22" height="22" viewBox="0 0 22 22" fill="none" xmlns="http://www.w3.org/2000/svg">
<path d="M16.9569 18.0564V19.8611C16.9569 20.0299 16.8201 20.1667 16.6514 20.1667C16.4827 20.1667 16.3459 20.0299 16.3459 19.8611V18.0564C16.3459 16.6512 15.2087 15.514 13.8034 15.514C13.1385 15.514 12.5351 15.1753 12.1896 14.6078C12.1018 14.4637 12.1474 14.2757 12.2916 14.188C12.4356 14.1001 12.6236 14.1458 12.7114 14.29C12.9452 14.6738 13.3535 14.903 13.8034 14.903C15.5463 14.9029 16.9569 16.3133 16.9569 18.0564ZM11.2618 14.7603C10.6222 14.8997 9.97303 14.7583 9.45803 14.4047C9.54636 14.2092 9.60063 13.9989 9.61786 13.781C12.2367 14.5518 14.8564 12.5753 14.8564 9.86022C14.8564 7.269 14.8596 7.31025 14.8491 7.204C14.8089 6.78288 14.2004 6.84016 14.241 7.26392C14.2478 7.3332 14.2454 7.39381 14.2454 9.86018C14.2454 11.7765 12.6864 13.3355 10.7701 13.3355C8.85374 13.3355 7.29473 11.7765 7.29473 9.86018C7.29473 9.17192 7.2874 8.63893 7.28499 8.23927C7.27881 7.23658 8.20603 6.47468 9.20941 6.7152C10.6245 7.05453 11.1949 7.93718 13.0087 7.85271C13.1772 7.8448 13.3074 7.70178 13.2995 7.5332C13.2916 7.36467 13.1495 7.23532 12.98 7.24235C11.3449 7.31922 10.8916 6.4903 9.3519 6.12104C7.95978 5.7871 6.66543 6.84627 6.67395 8.24305C6.67601 8.5679 6.68029 8.92368 6.68243 9.36188C6.47902 9.25582 6.33993 9.04547 6.33993 8.80349C6.33993 8.7965 6.33997 7.21653 6.33986 7.20958C6.32454 6.51707 6.42319 4.777 7.66713 3.5779C9.05692 2.23826 11.2314 2.23776 12.9221 2.82708L12.6778 2.92759C12.3862 3.04755 12.4472 3.48021 12.7616 3.51389L13.2986 3.57141C14.3322 3.68208 15.2462 4.22106 15.8319 5.05858C15.4475 5.52561 15.2383 6.10694 15.2383 6.7194V8.80346C15.2383 8.97218 15.3751 9.10898 15.5438 9.10898C15.7125 9.10898 15.8493 8.97218 15.8493 8.80346V6.7194C15.8493 6.18844 16.0544 5.688 16.4267 5.31033C16.5304 5.20531 16.5431 5.03582 16.4708 4.91915C15.8616 3.94227 14.9552 3.31328 13.9208 3.06099C14.0881 2.91824 14.0552 2.653 13.8615 2.55505C12.9733 2.10642 11.7063 1.7915 10.5006 1.83791C7.45021 1.95614 5.66461 4.2342 5.72896 7.2197V8.80353C5.72896 9.38804 6.13791 9.87924 6.68682 10.0112C6.74376 11.5716 7.67973 12.9116 9.01334 13.5493V13.6297C9.01334 14.334 8.44258 14.903 7.73675 14.903C5.99019 14.903 4.58325 16.3168 4.58325 18.0564V19.8612C4.58325 20.0299 4.72005 20.1667 4.88878 20.1667C5.0575 20.1667 5.1943 20.0299 5.1943 19.8612V18.0564C5.1943 16.6513 6.33142 15.514 7.73675 15.514C8.25702 15.514 8.75246 15.3055 9.11894 14.9128C9.77027 15.3574 10.5881 15.5326 11.3919 15.3574C11.5567 15.3215 11.6613 15.1587 11.6253 14.9938C11.5894 14.8289 11.4265 14.7243 11.2618 14.7603ZM13.8635 18.6009H12.9469C12.7782 18.6009 12.6414 18.7377 12.6414 18.9064C12.6414 19.0751 12.7782 19.2119 12.9469 19.2119H13.8635C14.0322 19.2119 14.169 19.0751 14.169 18.9064C14.169 18.7377 14.0322 18.6009 13.8635 18.6009Z" fill="#4637A5" stroke="#4637A5" stroke-width="0.4"/>
</svg>
