<svg width="33" height="36" viewBox="0 0 33 36" fill="none" xmlns="http://www.w3.org/2000/svg">
<path d="M20.6353 19.8016C22.3216 18.8877 23.6551 17.4377 24.425 15.681C25.1949 13.9242 25.3573 11.961 24.8865 10.1016C24.4157 8.2423 23.3385 6.59293 21.8253 5.41432C20.3122 4.23572 18.4493 3.59512 16.5312 3.59381C15.7211 3.594 14.9151 3.71018 14.1378 3.93881C13.9543 3.21717 13.5871 2.55533 13.072 2.01773C12.5568 1.48012 11.9112 1.08506 11.198 0.871003C10.4849 0.65695 9.72842 0.631197 9.00234 0.796252C8.27627 0.961306 7.6053 1.31154 7.05475 1.81287C6.50421 2.3142 6.09285 2.94953 5.86071 3.65702C5.62858 4.36451 5.58359 5.12005 5.73011 5.85009C5.87663 6.58013 6.20968 7.25979 6.69684 7.82292C7.18399 8.38604 7.80865 8.81344 8.51 9.0635C7.73975 11.023 7.71286 13.1966 8.43441 15.1746C9.15597 17.1526 10.5761 18.7983 12.4272 19.8016C9.10129 20.5671 6.13298 22.4371 4.00657 25.1065C1.88016 27.7759 0.721187 31.0872 0.71875 34.5001C0.71875 34.6907 0.794475 34.8735 0.929267 35.0083C1.06406 35.1431 1.24688 35.2188 1.4375 35.2188H31.625C31.8156 35.2188 31.9984 35.1431 32.1332 35.0083C32.268 34.8735 32.3438 34.6907 32.3438 34.5001C32.3413 31.0872 31.1823 27.7759 29.0559 25.1065C26.9295 22.4371 23.9612 20.5671 20.6353 19.8016ZM16.5312 5.03131C17.9291 5.03203 19.2965 5.44037 20.4659 6.20633C21.6352 6.97229 22.5558 8.06262 23.115 9.34381H15.8125C15.2205 9.34591 14.6341 9.23004 14.0874 9.00297C13.5407 8.7759 13.0447 8.44219 12.6284 8.02131L11.6078 7.00069C12.9343 5.73504 14.6978 5.02965 16.5312 5.03131ZM7.10125 5.03131C7.11772 4.33017 7.38992 3.65924 7.86659 3.1448C8.34326 2.63036 8.99153 2.3079 9.68938 2.23811C10.3872 2.16833 11.0865 2.35603 11.6556 2.7659C12.2247 3.17576 12.6244 3.77951 12.7794 4.4635C11.2912 5.19781 10.0443 6.34254 9.18563 7.76256C8.59046 7.59237 8.06612 7.23463 7.69058 6.74254C7.31503 6.25045 7.10835 5.65029 7.10125 5.03131ZM9.34375 12.2188C9.34335 10.7382 9.80297 9.29403 10.6591 8.086L11.615 9.04194C12.1657 9.59389 12.82 10.0317 13.5403 10.3302C14.2606 10.6286 15.0328 10.782 15.8125 10.7813H23.575C23.6701 11.2546 23.7183 11.7361 23.7188 12.2188C23.7188 14.1251 22.9615 15.9532 21.6136 17.3011C20.2657 18.6491 18.4375 19.4063 16.5312 19.4063C14.625 19.4063 12.7968 18.6491 11.4489 17.3011C10.101 15.9532 9.34375 14.1251 9.34375 12.2188ZM2.15625 33.7813C2.34049 30.2855 3.86021 26.9939 6.40156 24.5863C8.94291 22.1787 12.3118 20.839 15.8125 20.8438H17.25C20.7507 20.839 24.1196 22.1787 26.6609 24.5863C29.2023 26.9939 30.722 30.2855 30.9062 33.7813H2.15625Z" fill="#151A6A"/>
</svg>
