<svg width="87" height="16" viewBox="0 0 87 16" fill="none" xmlns="http://www.w3.org/2000/svg">
<path d="M6.48047 6.95312L9.09766 0.78125H12.7988L8.21875 9.89258V15H4.74219V9.89258L0.171875 0.78125H3.85352L6.48047 6.95312ZM12.623 9.61914C12.623 8.56445 12.8281 7.62695 13.2383 6.80664C13.6484 5.97982 14.2376 5.34505 15.0059 4.90234C15.7741 4.45964 16.6758 4.23828 17.7109 4.23828C19.293 4.23828 20.5397 4.72982 21.4512 5.71289C22.3626 6.68945 22.8184 8.02083 22.8184 9.70703V9.82422C22.8184 11.4714 22.3594 12.7799 21.4414 13.75C20.5299 14.7135 19.293 15.1953 17.7305 15.1953C16.2266 15.1953 15.0189 14.7461 14.1074 13.8477C13.196 12.9427 12.7044 11.7188 12.6328 10.1758L12.623 9.61914ZM15.9141 9.82422C15.9141 10.8008 16.0671 11.5169 16.373 11.9727C16.679 12.4284 17.1315 12.6562 17.7305 12.6562C18.9023 12.6562 19.5013 11.7546 19.5273 9.95117V9.61914C19.5273 7.72461 18.9219 6.77734 17.7109 6.77734C16.6107 6.77734 16.015 7.5944 15.9238 9.22852L15.9141 9.82422ZM30.5625 13.8574C29.8659 14.7493 28.9251 15.1953 27.7402 15.1953C26.5814 15.1953 25.7025 14.86 25.1035 14.1895C24.5111 13.5124 24.2148 12.5423 24.2148 11.2793V4.43359H27.5059V11.2988C27.5059 12.2038 27.9453 12.6562 28.8242 12.6562C29.5794 12.6562 30.1165 12.3861 30.4355 11.8457V4.43359H33.7461V15H30.6602L30.5625 13.8574ZM41.9492 7.41211L40.8652 7.33398C39.8301 7.33398 39.166 7.65951 38.873 8.31055V15H35.582V4.43359H38.668L38.7754 5.79102C39.3288 4.75586 40.1003 4.23828 41.0898 4.23828C41.4414 4.23828 41.7474 4.27734 42.0078 4.35547L41.9492 7.41211ZM47.7891 0.78125L50.9629 10.6738L54.127 0.78125H58.6387V15H55.2012V11.6797L55.5332 4.88281L52.0957 15H49.8301L46.3828 4.87305L46.7148 11.6797V15H43.2871V0.78125H47.7891ZM64.1465 15H60.8457V4.43359H64.1465V15ZM60.6504 1.70898C60.6504 1.24023 60.8197 0.85612 61.1582 0.556641C61.4967 0.257161 61.9362 0.107422 62.4766 0.107422C63.0169 0.107422 63.4564 0.257161 63.7949 0.556641C64.1335 0.85612 64.3027 1.24023 64.3027 1.70898C64.3027 2.17773 64.1335 2.56185 63.7949 2.86133C63.4564 3.16081 63.0169 3.31055 62.4766 3.31055C61.9362 3.31055 61.4967 3.16081 61.1582 2.86133C60.8197 2.56185 60.6504 2.17773 60.6504 1.70898ZM69.2051 4.43359L69.3125 5.67383C70.0417 4.7168 71.0475 4.23828 72.3301 4.23828C73.4303 4.23828 74.2507 4.56706 74.791 5.22461C75.3379 5.88216 75.6211 6.87174 75.6406 8.19336V15H72.3398V8.33008C72.3398 7.79622 72.2324 7.4056 72.0176 7.1582C71.8027 6.9043 71.4121 6.77734 70.8457 6.77734C70.2012 6.77734 69.7227 7.03125 69.4102 7.53906V15H66.1191V4.43359H69.2051ZM77.0566 9.63867C77.0566 7.96549 77.418 6.64714 78.1406 5.68359C78.8633 4.72005 79.8724 4.23828 81.168 4.23828C82.112 4.23828 82.9062 4.60938 83.5508 5.35156V0H86.8516V15H83.8926L83.7266 13.8672C83.0495 14.7526 82.1901 15.1953 81.1484 15.1953C79.8919 15.1953 78.8958 14.7135 78.1602 13.75C77.4245 12.7865 77.0566 11.416 77.0566 9.63867ZM80.3477 9.84375C80.3477 11.7188 80.8945 12.6562 81.9883 12.6562C82.7174 12.6562 83.2383 12.3503 83.5508 11.7383V7.71484C83.2513 7.08984 82.737 6.77734 82.0078 6.77734C80.9922 6.77734 80.4421 7.59766 80.3574 9.23828L80.3477 9.84375Z" fill="#1EAB81"/>
</svg>
